<svg width="280" height="40" viewBox="0 0 280 40" fill="none" xmlns="http://www.w3.org/2000/svg">
<g clip-path="url(#clip0_86_472)">
<path d="M139.321 39.5633L139.299 28.7721L133.946 37.7644H132.973L127.62 28.8364V39.5633H125.588V24.7531H127.322L133.499 35.1636L139.592 24.7531H141.326L141.348 39.5633H139.316H139.321Z" fill="#10B2AA"/>
<path d="M144.801 32.1608C144.801 27.8229 148.144 24.5868 152.69 24.5868C157.237 24.5868 160.539 27.8015 160.539 32.1608C160.539 36.5201 157.196 39.7349 152.69 39.7349C148.184 39.7349 144.801 36.4987 144.801 32.1608ZM158.427 32.1608C158.427 28.8818 155.974 26.469 152.693 26.469C149.412 26.469 146.918 28.8818 146.918 32.1608C146.918 35.4398 149.371 37.8527 152.693 37.8527C156.014 37.8527 158.427 35.4398 158.427 32.1608Z" fill="#10B2AA"/>
<path d="M176.301 35.5657C176.301 38.1046 174.377 39.5633 170.632 39.5633H163.565V24.7531H170.208C173.615 24.7531 175.519 26.1927 175.519 28.5818C175.519 30.1903 174.693 31.3111 173.53 31.8822C175.2 32.3486 176.301 33.5954 176.301 35.5633V35.5657ZM165.683 26.4688V31.2088H170.02C172.178 31.2088 173.406 30.4045 173.406 28.8388C173.406 27.273 172.178 26.4688 170.02 26.4688H165.683ZM174.165 35.3967C174.165 33.6835 172.897 32.922 170.548 32.922H165.683V37.8524H170.548C172.897 37.8524 174.165 37.1124 174.165 35.3991V35.3967Z" fill="#10B2AA"/>
<path d="M179.791 24.7563H181.906V39.5665H179.791V24.7563Z" fill="#10B2AA"/>
<path d="M186.562 24.7563H188.678V37.7247H196.696V39.5665H186.562V24.7563Z" fill="#10B2AA"/>
<path d="M210.509 37.7247V39.5665H199.762V24.7563H210.211V26.598H201.877V31.1477H209.302V32.9466H201.877V37.7271H210.509V37.7247Z" fill="#10B2AA"/>
<path d="M221.744 24.7563H223.859V37.7247H231.877V39.5665H221.744V24.7563Z" fill="#10B2AA"/>
<path d="M245.67 35.8608H237.799L236.17 39.5633H233.99L240.697 24.7531H242.791L249.517 39.5633H247.295L245.665 35.8608H245.67ZM244.93 34.1689L241.735 26.9113L238.539 34.1689H244.927H244.93Z" fill="#10B2AA"/>
<path d="M264.668 35.5657C264.668 38.1046 262.743 39.5633 258.998 39.5633H251.932V24.7531H258.574C261.981 24.7531 263.885 26.1927 263.885 28.5818C263.885 30.1903 263.059 31.3111 261.896 31.8822C263.566 32.3486 264.668 33.5954 264.668 35.5633V35.5657ZM254.047 26.4688V31.2088H258.384C260.542 31.2088 261.77 30.4045 261.77 28.8388C261.77 27.273 260.542 26.4688 258.384 26.4688H254.047ZM262.531 35.3967C262.531 33.6835 261.263 32.922 258.915 32.922H254.049V37.8524H258.915C261.263 37.8524 262.531 37.1124 262.531 35.3991V35.3967Z" fill="#10B2AA"/>
<path d="M267.649 37.8719L268.432 36.2206C269.531 37.2152 271.416 37.9338 273.319 37.9338C275.879 37.9338 276.978 36.9392 276.978 35.6495C276.978 32.0326 268.009 34.3169 268.009 28.8155C268.009 26.5311 269.786 24.5847 273.678 24.5847C275.413 24.5847 277.211 25.051 278.439 25.8958L277.742 27.5876C276.453 26.7619 274.992 26.3812 273.681 26.3812C271.164 26.3812 270.083 27.4401 270.083 28.7298C270.083 32.3467 279.053 30.0838 279.053 35.521C279.053 37.7839 277.233 39.7304 273.319 39.7304C271.056 39.7304 268.834 38.9689 267.649 37.8696V37.8719Z" fill="#10B2AA"/>
<path d="M125.588 10.1048C125.588 4.69189 129.772 0.688843 135.447 0.688843C141.122 0.688843 145.306 4.66421 145.306 10.1048C145.306 15.5454 141.122 19.5208 135.447 19.5208C129.772 19.5208 125.588 15.5195 125.588 10.1048ZM141.88 10.1048C141.88 6.36472 139.135 3.67123 135.447 3.67123C131.759 3.67123 129.014 6.36472 129.014 10.1048C129.014 13.8449 131.759 16.5384 135.447 16.5384C139.135 16.5384 141.88 13.8449 141.88 10.1048Z" fill="#024758"/>
<path d="M164.551 0.951904L156.575 19.2597H153.228L145.227 0.951904H148.914L155.008 15.075L161.154 0.951904H164.552H164.551Z" fill="#024758"/>
<path d="M180.215 16.4088V19.2597H166.486V0.951904H179.848V3.80281H169.885V8.56357H178.724V11.3626H169.885V16.4105H180.215V16.4088Z" fill="#024758"/>
<path d="M188.96 11.0771V7.72107H185.572V11.0771H182.27V14.466H185.572V17.8221H188.96V14.466H192.262V11.0771H188.96Z" fill="#F78F20"/>
<path d="M196.988 13.243C199.472 12.276 200.885 10.2347 200.885 7.46333C200.885 3.41012 197.905 0.951904 193.093 0.951904H185.562V6.16416H188.96V3.82877H192.935C195.915 3.82877 197.458 5.16253 197.458 7.46333C197.458 9.52367 196.218 10.8263 193.819 11.0771V13.9281L197.536 19.2579H201.198L196.988 13.243Z" fill="#024758"/>
<path d="M204.152 0.951904H207.551V16.3828H217.121V19.2597H204.15V0.951904H204.152Z" fill="#024758"/>
<path d="M232.866 15.0213H223.714L221.91 19.2579H218.405L226.642 0.950134H229.989L238.252 19.2579H234.696L232.866 15.0213ZM231.741 12.3538L228.289 4.35116L224.864 12.3538H231.741Z" fill="#024758"/>
<path d="M256.324 0.951904V19.2597H253.525L243.431 6.86305V19.2597H240.058V0.951904H242.856L252.951 13.3485V0.951904H256.324Z" fill="#024758"/>
<path d="M259.67 0.951866H267.671C273.608 0.951866 277.66 4.61411 277.66 10.1049C277.66 15.5957 273.608 19.2579 267.671 19.2579H259.67V0.950134V0.951866ZM267.514 16.381C271.593 16.381 274.234 13.8969 274.234 10.1049C274.234 6.3129 271.593 3.82873 267.514 3.82873H263.069V16.3828H267.514V16.381Z" fill="#024758"/>
</g>
<path d="M15.275 22.5572C15.1241 21.7595 15.0415 20.9384 15.0415 20.0975C15.0415 12.8135 20.9664 6.88601 28.2512 6.88601C32.6778 6.88601 36.6014 9.07804 38.9997 12.4308L41.6172 9.81291C38.5308 5.80796 33.6875 3.22424 28.253 3.22424C18.9507 3.22424 11.3838 10.7921 11.3838 20.0957C11.3838 22.002 11.7018 23.8347 12.2874 25.5452L15.2768 22.5554L15.275 22.5572Z" fill="#F78F20"/>
<path d="M114.657 22.9994L106.203 19.3466L103.492 14.959L107.586 14.9715C108.5 14.9769 109.346 14.4792 109.794 13.6815C110.241 12.8837 110.221 11.9027 109.742 11.1247L106.003 5.0499C105.547 4.30964 104.724 3.84967 103.854 3.84967H60.5029L64.1642 7.51144H103.22L105.556 11.3062L95.0588 11.2756C94.554 11.272 94.0725 11.4715 93.7114 11.8308C93.3521 12.1902 93.1527 12.6681 93.1527 13.1766V31.0273H87.6751L91.3364 34.689H98.3518C98.9015 37.6932 101.537 39.9786 104.697 39.9786C107.857 39.9786 110.493 37.6932 111.042 34.689H113.656C115.049 34.689 116.18 33.5571 116.18 32.1646V25.3208C116.18 24.3128 115.582 23.4037 114.657 23.003V22.9994ZM96.8122 14.9392L99.1818 14.9464L101.666 18.9693H96.814V14.941L96.8122 14.9392ZM104.695 36.3133C103.156 36.3133 101.903 35.0609 101.903 33.5211C101.903 31.9813 103.156 30.729 104.695 30.729C106.235 30.729 107.487 31.9813 107.487 33.5211C107.487 35.0609 106.235 36.3133 104.695 36.3133ZM112.519 31.0237H110.645C109.668 28.7023 107.368 27.0672 104.695 27.0672C102.022 27.0672 99.7243 28.7005 98.7452 31.0237H96.8122V22.6293H104.57L112.519 26.0628V31.0237Z" fill="#10B2AA"/>
<path d="M5.94902 39.6766L24.6363 20.9851L43.3254 39.6766H48.5029L34.0249 25.1966L54.0416 5.17908L88.5345 39.6766H93.7121L54.0416 0.000854492L31.4379 22.6075L24.6363 15.8068L0.771484 39.6766H5.94902Z" fill="#024758"/>
<defs>
<clipPath id="clip0_86_472">
<rect width="153.641" height="39.978" fill="white" transform="translate(125.588 0.000305176)"/>
</clipPath>
</defs>
</svg>
